<svg width="46" height="48" viewBox="0 0 46 48" fill="none" xmlns="http://www.w3.org/2000/svg">
<path d="M17.2509 0.834912C17.7747 1.50131 17.9535 2.50563 17.482 3.40838C15.8703 6.49422 14.9543 10.0291 14.9543 13.7906C14.9543 25.8519 24.3809 35.6181 35.9955 35.6181C37.5088 35.6181 38.9833 35.4526 40.4036 35.1386C41.3747 34.924 42.2579 35.3821 42.7314 36.0859C43.2199 36.812 43.3224 37.8954 42.6416 38.7673C38.2472 44.3955 31.5237 48 23.9878 48C10.7336 48 0 36.859 0 23.1301C0 12.7974 6.07817 3.9359 14.7302 0.180263C15.7298 -0.253653 16.7103 0.14728 17.2509 0.834912ZM13.9667 3.93193C7.40313 7.62686 2.94662 14.8383 2.94662 23.1301C2.94662 35.1914 12.3732 44.9576 23.9878 44.9576C29.8412 44.9576 35.1371 42.4793 38.9537 38.4731C37.9839 38.5969 36.9966 38.6605 35.9955 38.6605C22.7413 38.6605 12.0077 27.5196 12.0077 13.7906C12.0077 10.2904 12.7059 6.95619 13.9667 3.93193Z" fill="black"/>
</svg>
